<svg class="img-fluid" id="outputsvg" xmlns="http://www.w3.org/2000/svg" style="transform: matrix(1, 0, 0, 1, 0, 0); transform-origin: 0% 0%; cursor: move; transition: transform 200ms ease-in-out 0s;" width="1242" height="1244" viewBox="0 0 12420 12440"><g id="l4thvcZf9YWtklvLKtDTGLo" fill="rgb(254,0,0)" style="transform: none;"><g><path id="p30MeUum1" d="M0 6225 l0 -6215 6210 0 6210 0 0 6215 0 6215 -6210 0 -6210 0 0 -6215z m3961 4335 c43 -31 59 -95 59 -232 l0 -119 -27 3 -28 3 -3 160 c-3 193 -4 195 -101 195 -36 0 -71 -4 -78 -8 -25 -16 -33 -68 -33 -208 l0 -144 -25 0 -25 0 0 128 c0 141 16 196 64 228 57 36 140 34 197 -6z m1428 14 c2 -2 -33 -4 -78 -4 -80 0 -84 -1 -116 -33 -25 -25 -34 -45 -40 -85 -11 -84 2 -149 39 -189 29 -32 38 -35 101 -41 60 -5 66 -7 40 -14 -43 -12 -116 8 -160 44 -131 109 -79 300 92 336 33 7 110 -1 122 -14z m1249 -5 l33 -11 -3 -76 -3 -77 -57 -3 c-36 -2 -58 1 -58 8 0 5 16 10 35 10 l35 0 0 75 0 75 -89 0 c-81 0 -92 -2 -120 -26 -39 -32 -55 -90 -48 -173 9 -114 62 -155 192 -148 58 3 72 1 55 -6 -46 -18 -142 -13 -185 10 -174 92 -142 320 52 361 38 8 100 1 161 -19z m1903 -14 c45 -29 79 -96 79 -155 0 -125 -121 -222 -238 -189 -63 17 -116 71 -135 137 -14 46 -14 57 -1 102 20 68 58 108 122 129 63 22 115 14 173 -24z m1371 18 c35 -17 61 -55 61 -89 0 -49 -60 -87 -173 -109 -50 -10 -70 -32 -70 -75 0 -66 15 -75 124 -75 97 0 101 -7 10 -19 -87 -12 -166 36 -166 101 0 46 49 81 142 103 75 17 90 32 90 90 0 67 -10 73 -129 68 -55 -1 -97 -1 -95 1 2 3 30 10 62 17 61 12 101 9 144 -13z m-7682 -174 l0 -190 -27 3 -28 3 -3 175 c-1 96 0 180 2 187 3 7 17 13 31 13 l25 0 0 -191z m220 46 l0 -145 30 0 c17 0 30 -2 30 -6 0 -3 -10 -23 -22 -44 -19 -34 -28 -40 -55 -40 l-33 0 0 190 0 190 25 0 25 0 0 -145z m280 -45 c0 -183 -1 -190 -20 -190 -19 0 -20 7 -20 145 l0 145 -35 0 -35 0 22 45 c19 40 26 45 55 45 l33 0 0 -190z m218 93 l3 -93 89 0 c53 0 90 -4 90 -10 0 -6 -37 -10 -90 -10 l-90 0 0 -75 0 -75 95 0 c57 0 95 -4 95 -10 0 -6 -48 -10 -125 -10 l-125 0 0 191 0 190 28 -3 27 -3 3 -92z m602 82 c0 -12 -18 -15 -100 -15 l-100 0 0 -175 0 -175 -25 0 -25 0 0 190 0 190 125 0 c104 0 125 -2 125 -15z m890 0 c0 -12 -17 -15 -95 -15 l-95 0 0 -80 0 -80 90 0 c53 0 90 -4 90 -10 0 -6 -37 -10 -90 -10 l-90 0 0 -75 0 -75 95 0 c57 0 95 -4 95 -10 0 -6 -48 -10 -125 -10 l-125 0 0 190 0 190 125 0 c104 0 125 -2 125 -15z m240 -130 l0 -145 30 0 c17 0 30 -2 30 -6 0 -3 -10 -23 -22 -44 -19 -34 -28 -40 -55 -40 l-33 0 0 190 0 190 25 0 25 0 0 -145z m280 -45 c0 -183 -1 -190 -20 -190 -19 0 -20 7 -20 145 l0 145 -35 0 -35 0 22 45 c19 40 26 45 55 45 l33 0 0 -190z m710 -1 l0 -190 -27 3 -28 3 -3 175 c-1 96 0 180 2 187 3 7 17 13 31 13 l25 0 0 -191z m220 46 l0 -145 31 0 c17 0 29 -3 27 -7 -37 -77 -42 -83 -75 -83 l-33 0 0 190 0 190 25 0 25 0 0 -145z m280 -45 c0 -183 -1 -190 -20 -190 -19 0 -20 7 -20 145 l0 145 -35 0 -35 0 22 45 c19 40 26 45 55 45 l33 0 0 -190z m930 0 l0 -190 -25 0 -25 0 0 190 0 190 25 0 25 0 0 -190z m220 45 l0 -145 30 0 c36 0 36 0 10 -50 -18 -35 -25 -40 -55 -40 l-35 0 0 190 0 190 25 0 25 0 0 -145z m290 -45 l0 -190 -25 0 -25 0 0 145 0 145 -30 0 c-36 0 -36 0 -10 50 18 35 25 40 55 40 l35 0 0 -190z m395 160 c123 -59 146 -194 50 -287 -51 -49 -113 -66 -221 -61 l-69 3 -3 175 c-1 96 0 181 3 189 9 22 182 9 240 -19z m815 -120 l0 -150 30 0 c17 0 30 -2 30 -4 0 -3 -9 -21 -21 -40 -17 -30 -27 -36 -55 -36 l-34 0 0 190 0 190 25 0 25 0 0 -150z m290 -40 l0 -190 -25 0 -25 0 0 145 0 145 -30 0 c-36 0 -36 0 -10 50 18 35 25 40 55 40 l35 0 0 -190z m410 175 c0 -12 -18 -15 -100 -15 l-100 0 0 -80 0 -80 90 0 c53 0 90 -4 90 -10 0 -6 -37 -10 -90 -10 l-90 0 0 -75 0 -75 95 0 c57 0 95 -4 95 -10 0 -6 -47 -10 -120 -10 l-120 0 0 190 0 190 125 0 c104 0 125 -2 125 -15z m670 -175 l0 -190 -25 0 -25 0 0 190 0 190 25 0 25 0 0 -190z m189 150 l12 -40 123 0 123 0 12 40 c7 24 18 40 27 40 18 0 23 15 -60 -205 l-63 -170 -39 -3 -39 -3 -68 183 c-37 101 -67 186 -67 191 0 4 6 7 13 7 8 0 19 -18 26 -40z m-7249 -2970 l0 -1810 -445 0 -445 0 0 1803 c0 992 3 1807 7 1810 3 4 204 7 445 7 l438 0 0 -1810z m1440 550 l0 -1260 33 0 33 0 668 1260 668 1260 499 0 499 0 0 -1810 0 -1810 -420 0 -420 0 0 1255 0 1255 -33 0 -32 0 -665 -1255 -665 -1255 -502 0 -503 0 0 1803 c0 992 3 1807 7 1810 3 4 192 7 420 7 l413 0 0 -1260z m3472 928 l116 -333 775 -3 c731 -2 775 -1 782 15 3 10 53 153 110 318 57 165 107 308 110 318 7 16 37 17 441 17 239 0 434 -1 434 -2 0 -2 -301 -815 -669 -1808 l-669 -1805 -538 -2 -539 -3 -665 1797 c-366 987 -666 1802 -668 1809 -3 12 70 14 430 14 l434 0 116 -332z m-4912 -5638 l0 -1810 -445 0 -445 0 0 1810 0 1810 445 0 445 0 0 -1810z m1440 555 l0 -1255 33 0 32 0 665 1255 665 1255 500 -2 500 -3 3 -1807 2 -1808 -420 0 -420 0 0 1255 0 1255 -34 0 c-18 0 -38 -6 -43 -12 -6 -7 -306 -572 -669 -1255 l-658 -1243 -498 0 -498 0 0 1810 0 1810 420 0 420 0 0 -1255z m3790 475 l0 -780 755 0 755 0 0 -330 0 -330 -755 0 -755 0 0 -370 0 -370 805 0 805 0 0 -330 0 -330 -1250 0 -1250 0 0 1810 0 1810 445 0 445 0 0 -780z"></path><path id="pVLFLt2xT" d="M8326 10540 c-31 -38 -40 -81 -34 -174 8 -115 47 -153 153 -144 90 8 125 57 125 178 0 69 -13 117 -42 147 -19 20 -31 23 -99 23 -74 0 -78 -1 -103 -30z"></path><path id="pXSIoxieA" d="M7820 10394 l0 -167 81 6 c127 8 159 41 159 165 0 127 -35 162 -165 162 l-75 0 0 -166z"></path><path id="pGwG3DeBX" d="M10430 10447 c0 -24 11 -74 23 -113 23 -67 25 -69 59 -72 l36 -3 26 78 c14 43 26 95 26 116 l0 37 -85 0 -85 0 0 -43z"></path><path id="pQnHabJpG" d="M8400 8058 c0 -17 97 -313 216 -657 119 -344 232 -672 251 -728 35 -102 35 -103 67 -103 l32 0 247 719 c165 480 247 733 247 760 l0 41 -530 0 -530 0 0 -32z"></path></g></g><g id="lbWbt2Z9CcpKgKmA1m8DZ5" fill="rgb(255,255,255)" style="transform: none;"><g><path id="pGAxQA5D8" d="M3793 10621 c-51 -13 -83 -39 -104 -84 -16 -35 -19 -67 -19 -199 l0 -158 55 0 55 0 0 144 c0 140 8 192 33 208 7 4 28 8 48 8 63 0 68 -15 71 -195 l3 -160 58 -3 58 -3 -3 163 c-3 187 -16 228 -78 260 -41 21 -132 30 -177 19z"></path><path id="pmwa2eyPP" d="M5237 10620 c-113 -29 -167 -100 -167 -222 0 -78 24 -134 75 -175 63 -52 150 -65 243 -38 l52 16 0 43 0 44 -52 -20 c-68 -26 -124 -18 -162 21 -56 59 -54 171 4 224 26 23 39 27 88 27 31 -1 68 -7 82 -15 37 -21 40 -19 40 29 0 41 -3 45 -32 55 -47 16 -128 21 -171 11z"></path><path id="pUD29QqL" d="M6447 10620 c-112 -28 -167 -100 -167 -220 0 -98 35 -161 115 -203 32 -17 57 -22 125 -22 47 0 102 6 123 13 35 13 37 16 37 59 0 39 -2 44 -17 38 -55 -23 -124 -37 -157 -31 -111 21 -153 171 -71 253 30 30 38 33 94 33 l61 0 0 -45 c0 -45 0 -45 -35 -45 -34 0 -35 -1 -35 -40 l0 -41 88 3 87 3 3 107 3 107 -51 15 c-68 20 -157 27 -203 16z"></path><path id="pfSXdzPW3" d="M8340 10611 c-67 -24 -104 -63 -124 -132 -20 -66 -20 -92 0 -160 30 -102 122 -158 240 -146 72 7 122 34 156 83 54 77 56 206 3 285 -48 74 -174 106 -275 70z m163 -101 c67 -79 34 -236 -54 -255 -64 -14 -114 29 -125 109 -9 61 2 110 32 146 22 26 33 30 74 30 41 0 52 -4 73 -30z"></path><path id="peNZBK0EZ" d="M9740 10617 c-30 -7 -61 -16 -67 -20 -13 -8 -18 -78 -7 -89 3 -4 24 2 47 13 48 21 156 26 175 7 34 -34 2 -70 -78 -88 -100 -23 -138 -54 -147 -118 -8 -60 20 -110 76 -135 37 -16 58 -19 120 -13 118 9 121 11 121 62 0 24 -2 44 -5 44 -3 0 -32 -7 -64 -16 -70 -20 -126 -13 -142 17 -15 28 11 55 59 63 69 13 129 37 152 61 49 53 30 159 -36 197 -41 24 -136 31 -204 15z"></path><path id="pCQv1KNIz" d="M2144 10607 c-2 -7 -3 -105 -2 -217 l3 -205 58 -3 57 -3 0 221 0 220 -55 0 c-36 0 -57 -5 -61 -13z"></path><path id="pBX1hYCV5" d="M2370 10400 l0 -220 63 0 63 0 70 131 c38 73 74 139 81 148 10 13 12 -13 13 -131 l0 -148 50 0 50 0 0 220 0 220 -62 0 -63 0 -77 -148 -77 -147 -1 148 0 147 -55 0 -55 0 0 -220z"></path><path id="ppYdw5GTy" d="M2860 10400 l0 -220 155 0 155 0 0 40 0 40 -95 0 -95 0 0 45 0 45 90 0 90 0 0 40 0 40 -90 0 -89 0 -3 93 -3 92 -57 3 -58 3 0 -221z"></path><path id="piTxRoRyW" d="M3270 10400 l0 -220 55 0 55 0 0 175 0 175 100 0 100 0 0 45 0 45 -155 0 -155 0 0 -220z"></path><path id="pbnuvNzlr" d="M4160 10400 l0 -220 155 0 155 0 0 40 0 40 -95 0 -95 0 0 45 0 45 90 0 90 0 0 40 0 40 -90 0 -90 0 0 50 0 50 95 0 95 0 0 45 0 45 -155 0 -155 0 0 -220z"></path><path id="ppohdpdc0" d="M4600 10400 l0 -220 63 0 63 0 70 131 c38 73 74 139 81 148 10 13 12 -13 13 -131 l0 -148 50 0 50 0 0 220 0 220 -62 0 -63 0 -77 -148 -77 -147 -1 148 0 147 -55 0 -55 0 0 -220z"></path><path id="p3fru8KM3" d="M5584 10607 c-2 -7 -3 -105 -2 -217 l3 -205 58 -3 57 -3 0 221 0 220 -55 0 c-36 0 -57 -5 -61 -13z"></path><path id="pZ9tcQdMe" d="M5810 10400 l0 -220 63 0 63 0 68 130 c101 191 95 190 96 18 l0 -148 50 0 50 0 0 220 0 220 -62 0 -63 0 -77 -148 -77 -147 -1 148 0 147 -55 0 -55 0 0 -220z"></path><path id="piOZ4TpRp" d="M7020 10400 l0 -220 55 0 55 0 0 220 0 220 -55 0 -55 0 0 -220z"></path><path id="pXCVQTXCf" d="M7240 10400 l0 -221 66 3 66 3 76 143 77 144 3 -146 3 -146 54 0 55 0 0 220 0 221 -66 -3 -66 -3 -77 -144 -76 -145 -3 147 -3 147 -54 0 -55 0 0 -220z"></path><path id="p6err4vqZ" d="M7734 10607 c-2 -7 -3 -105 -2 -217 l3 -205 99 -3 c141 -4 197 10 251 61 49 48 70 105 63 178 -10 100 -76 170 -177 189 -79 15 -230 13 -237 -3z m236 -92 c38 -20 60 -63 60 -117 0 -81 -41 -123 -127 -134 l-53 -7 0 137 0 136 45 0 c26 0 59 -7 75 -15z"></path><path id="pjRs2JSgQ" d="M8740 10400 l0 -221 67 3 66 3 76 143 76 143 3 -146 3 -145 54 0 55 0 0 220 0 220 -64 0 -65 0 -80 -152 -80 -153 -1 153 0 152 -55 0 -55 0 0 -220z"></path><path id="pr2X90y88" d="M9240 10400 l0 -220 150 0 150 0 0 40 0 40 -95 0 -95 0 0 45 0 45 90 0 90 0 0 40 0 40 -90 0 -90 0 0 50 0 50 100 0 100 0 0 45 0 45 -155 0 -155 0 0 -220z"></path><path id="p1CKKkfZov" d="M10110 10400 l0 -220 55 0 55 0 0 220 0 220 -55 0 -55 0 0 -220z"></path><path id="pndrkpRC9" d="M10299 10573 c10 -27 47 -126 82 -221 l64 -173 69 3 69 3 78 210 c43 116 78 213 79 218 0 4 -25 7 -55 7 l-54 0 -12 -40 -12 -40 -93 0 -93 0 -12 40 -12 40 -58 0 -59 0 19 -47z m271 -120 c0 -24 -53 -163 -60 -156 -9 10 -50 132 -50 150 0 9 16 13 55 13 30 0 55 -3 55 -7z"></path><path id="pwZrOkV1j" d="M2217 9413 c-4 -3 -7 -831 -7 -1840 l0 -1833 475 0 475 0 0 1840 0 1840 -468 0 c-258 0 -472 -3 -475 -7z"></path><path id="pTKzYwYWb" d="M3707 9413 c-4 -3 -7 -831 -7 -1840 l0 -1833 533 0 532 0 665 1255 665 1255 3 -1255 2 -1255 450 0 450 0 0 1840 0 1840 -529 0 -529 0 -668 -1261 -669 -1261 -3 1261 -2 1261 -443 0 c-244 0 -447 -3 -450 -7z"></path><path id="p6XllGuzh" d="M7010 9413 c0 -5 304 -833 677 -1840 l678 -1833 569 3 568 2 674 1819 c370 1000 676 1827 679 1837 6 18 -8 19 -468 19 -443 0 -475 -1 -482 -17 -3 -10 -53 -153 -110 -318 -57 -165 -107 -308 -110 -318 -7 -16 -50 -17 -752 -15 l-745 3 -116 333 -116 332 -473 0 c-260 0 -473 -3 -473 -7z m2420 -1364 c0 -14 -493 -1450 -496 -1446 -2 2 -114 324 -249 716 -136 392 -249 719 -252 727 -4 12 72 14 496 14 354 0 501 -3 501 -11z"></path><path id="pShFDQxKL" d="M2210 3420 l0 -1840 475 0 475 0 0 1840 0 1840 -475 0 -475 0 0 -1840z"></path><path id="p1B8Rnn6H8" d="M3700 3420 l0 -1840 528 0 528 0 658 1243 c362 683 665 1249 672 1257 12 12 14 -177 14 -1243 l0 -1257 450 0 450 0 -2 1838 -3 1837 -530 3 -530 2 -665 -1254 -665 -1253 -3 1253 -2 1254 -450 0 -450 0 0 -1840z"></path><path id="p1EvyrqbFX" d="M7440 3420 l0 -1840 1280 0 1280 0 0 360 0 360 -805 0 -805 0 0 340 0 340 755 0 755 0 0 360 0 360 -755 0 -755 0 0 780 0 780 -475 0 -475 0 0 -1840z"></path></g></g></svg>